<?xml version="1.0" standalone="no"?>
<!DOCTYPE svg PUBLIC "-//W3C//DTD SVG 20010904//EN"
 "http://www.w3.org/TR/2001/REC-SVG-20010904/DTD/svg10.dtd">
<svg version="1.0" xmlns="http://www.w3.org/2000/svg"
 width="153.000000pt" height="180.000000pt" viewBox="0 0 153.000000 180.000000"
 preserveAspectRatio="xMidYMid meet">

<g transform="translate(0.000000,180.000000) scale(0.100000,-0.100000)"
fill="#99481B" stroke="none">
<path d="M4 1733 c3 -38 26 -378 51 -758 25 -379 47 -708 50 -731 l6 -41 102
-32 c56 -18 202 -64 325 -102 l222 -70 323 97 c177 53 327 102 333 110 6 7 16
100 23 206 7 106 28 409 48 673 19 264 37 533 39 598 l5 117 -767 0 -767 0 7
-67z m1241 -370 c-4 -49 -9 -90 -12 -93 -3 -3 -171 -7 -374 -8 l-369 -4 6 -71
c3 -40 7 -87 10 -104 l5 -33 354 0 355 0 0 -22 c0 -13 -11 -142 -25 -287 -14
-145 -25 -270 -25 -276 0 -8 -78 -32 -205 -64 l-204 -51 -118 35 c-65 20 -152
47 -194 61 l-76 25 -6 52 c-3 29 -9 91 -13 140 l-7 87 102 0 101 0 0 -70 c0
-81 -8 -74 133 -115 l99 -29 106 35 107 35 7 40 c4 21 7 78 7 125 l1 86 -207
1 c-295 3 -473 12 -473 26 0 6 -9 110 -20 231 -11 121 -20 244 -20 272 l0 53
322 3 c178 1 394 3 481 5 l159 2 -7 -87z"/>
</g>
</svg>
