<?xml version="1.0" standalone="no"?>
<!DOCTYPE svg PUBLIC "-//W3C//DTD SVG 20010904//EN"
 "http://www.w3.org/TR/2001/REC-SVG-20010904/DTD/svg10.dtd">
<svg version="1.0" xmlns="http://www.w3.org/2000/svg"
 width="1024.000000pt" height="1024.000000pt" viewBox="0 0 1024.000000 1024.000000"
 preserveAspectRatio="xMidYMid meet">

<g transform="translate(0.000000,1024.000000) scale(0.100000,-0.100000)"
fill="#0B0BA3" stroke="none">
<path d="M983 9813 c-17 -26 -36 196 227 -2718 254 -2809 354 -3943 461 -5260
22 -280 42 -511 42 -511 2 -1 641 -166 1237 -319 821 -211 1282 -343 1603
-459 350 -127 427 -146 574 -146 139 0 252 31 648 179 211 79 1351 389 2525
686 124 32 226 58 227 59 0 0 15 174 33 386 81 994 161 1908 405 4620 195
2171 306 3461 298 3470 -7 7 -467 17 -1438 30 -568 8 -1903 11 -3849 8 l-2979
-3 -14 -22z m4417 -1664 c344 -6 1013 -11 1487 -12 475 -1 863 -5 863 -8 0 -3
-13 -138 -29 -300 -29 -284 -44 -469 -59 -689 l-7 -105 -255 -117 c-467 -215
-1111 -497 -1839 -808 -199 -86 -239 -106 -218 -111 14 -4 112 -13 219 -20
143 -10 428 -12 1096 -10 l902 2 0 -30 c0 -157 -268 -3283 -282 -3297 -9 -8
-1142 -309 -1573 -418 -143 -36 -343 -92 -445 -125 -218 -70 -273 -81 -396
-81 -178 0 -388 47 -871 196 -78 24 -218 64 -310 89 -824 224 -1129 309 -1135
314 -8 7 -59 338 -87 561 -41 326 -71 730 -71 973 l0 127 533 0 534 0 6 -132
c4 -73 15 -218 26 -323 11 -104 23 -236 27 -292 l7 -102 71 -30 c145 -60 320
-101 719 -166 242 -39 396 -69 547 -106 42 -10 55 -8 184 35 77 26 248 78 380
117 414 121 598 176 696 211 l95 33 7 195 c3 107 16 305 28 440 12 135 24 349
27 477 l6 232 -34 5 c-281 46 -1267 61 -2204 35 -632 -17 -1733 -18 -1744 0
-4 7 -11 60 -14 119 -4 59 -20 233 -36 387 -31 293 -56 584 -50 589 2 1 103
44 224 95 121 51 528 227 905 391 702 305 1029 445 1275 545 77 31 144 60 148
65 4 4 -27 10 -70 13 -276 23 -534 28 -1347 25 -838 -2 -1068 3 -1227 28 l-36
5 -7 87 c-4 48 -23 200 -42 337 -20 139 -38 315 -41 396 l-6 147 144 7 c512
25 1970 27 3279 4z"/>
</g>
</svg>
