<?xml version="1.0" standalone="no"?>
<!DOCTYPE svg PUBLIC "-//W3C//DTD SVG 20010904//EN"
 "http://www.w3.org/TR/2001/REC-SVG-20010904/DTD/svg10.dtd">
<svg version="1.0" xmlns="http://www.w3.org/2000/svg"
 width="180.000000pt" height="180.000000pt" viewBox="0 0 180.000000 180.000000"
 preserveAspectRatio="xMidYMid meet">

<g transform="translate(0.000000,180.000000) scale(0.100000,-0.100000)"
fill="#4040E1" stroke="none">
<path d="M558 1600 c-116 -35 -178 -145 -178 -319 l-1 -86 -38 -18 c-63 -29
-145 -93 -176 -136 -101 -147 -42 -305 154 -410 l59 -31 4 -107 c4 -118 25
-182 76 -237 86 -91 239 -88 391 8 l54 33 43 -29 c74 -50 134 -71 215 -76 62
-4 82 -1 115 16 99 51 148 150 149 303 l0 86 54 29 c80 42 164 124 191 186 55
129 -17 265 -189 357 l-60 32 6 48 c7 64 -12 172 -42 231 -41 81 -119 130
-208 130 -53 0 -152 -34 -218 -75 l-58 -36 -54 35 c-99 64 -212 89 -289 66z
m190 -141 c35 -17 62 -34 60 -39 -2 -4 -31 -37 -65 -74 l-62 -66 -93 -20 c-50
-11 -94 -20 -96 -20 -3 0 -2 33 1 74 13 176 95 223 255 145z m499 16 c37 -25
56 -74 61 -159 l5 -79 -29 8 c-16 4 -60 13 -99 22 -38 8 -70 15 -70 16 0 1
-26 32 -58 69 -31 36 -57 69 -57 72 0 3 19 15 43 27 95 50 154 56 204 24z
m-297 -177 c0 -4 -23 -8 -52 -8 l-52 0 29 30 29 30 23 -22 c13 -12 23 -25 23
-30z m65 -125 c45 -6 49 -9 90 -72 53 -82 105 -185 105 -207 0 -29 -126 -246
-154 -266 -6 -5 -78 -7 -161 -5 l-150 2 -37 55 c-21 30 -56 91 -79 135 l-42
80 37 75 c21 41 55 103 77 137 34 51 46 63 72 66 56 7 193 7 242 0z m-453 -77
c-15 -24 -28 -43 -30 -41 -1 1 -7 17 -12 34 -8 28 -6 33 13 41 51 21 58 13 29
-34z m717 34 c10 0 12 -8 7 -32 -10 -50 -19 -50 -44 -1 l-24 46 24 -6 c13 -4
29 -7 37 -7z m-846 -140 l27 -89 -27 -91 c-15 -49 -33 -90 -39 -90 -21 0 -119
76 -142 110 -29 43 -26 104 7 147 21 26 125 103 140 103 3 0 18 -41 34 -90z
m1053 42 c30 -23 58 -55 72 -84 21 -41 22 -52 12 -82 -17 -52 -147 -162 -168
-142 -3 3 -17 44 -32 90 l-28 85 30 89 c34 102 35 103 114 44z m-906 -373 c0
-6 -54 6 -67 16 -1 0 2 18 8 40 l11 38 24 -43 c13 -23 24 -46 24 -51z m704 49
c3 -17 4 -33 2 -35 -6 -7 -66 -22 -66 -17 0 10 45 84 51 84 4 0 9 -14 13 -32z
m-679 -176 c63 -12 84 -21 100 -41 11 -14 39 -47 63 -72 l43 -47 -38 -22 c-55
-32 -110 -50 -155 -50 -78 0 -128 85 -128 217 0 39 2 44 18 38 9 -3 53 -14 97
-23z m705 -28 c0 -87 -17 -140 -58 -175 -33 -29 -40 -31 -88 -26 -32 3 -77 18
-113 37 l-60 32 67 74 c64 70 69 73 129 84 35 6 73 15 85 20 37 14 38 13 38
-46z m-360 -5 c0 -3 -11 -16 -25 -29 l-25 -23 -25 23 c-14 13 -25 26 -25 29 0
3 23 6 50 6 28 0 50 -3 50 -6z"/>
<path d="M865 1061 c-79 -19 -128 -83 -128 -166 0 -93 68 -160 163 -160 102 1
165 63 165 165 0 42 -6 63 -23 87 -44 62 -110 90 -177 74z m81 -136 c32 -50
-22 -103 -72 -70 -26 17 -33 62 -12 83 21 21 66 14 84 -13z"/>
</g>
</svg>
